<svg width="25" height="24" viewBox="0 0 25 24" fill="none" xmlns="http://www.w3.org/2000/svg">
<g clip-path="url(#clip0_1_65)">
<path d="M7.65392 2.445C8.79692 3.278 9.68692 4.415 10.4469 5.503L10.8889 6.147L11.3059 6.762C11.5145 7.06673 11.6037 7.43755 11.5565 7.8038C11.5093 8.17005 11.329 8.50613 11.0499 8.748L9.09892 10.197C9.00466 10.2651 8.93831 10.365 8.9122 10.4783C8.88608 10.5916 8.90197 10.7105 8.95692 10.813C9.39892 11.616 10.1849 12.812 11.0849 13.712C11.9859 14.612 13.2379 15.45 14.0969 15.942C14.2046 16.0025 14.3314 16.0194 14.4512 15.9892C14.571 15.9591 14.6746 15.8842 14.7409 15.78L16.0109 13.847C16.2444 13.5368 16.5888 13.3291 16.9721 13.2672C17.3553 13.2053 17.7477 13.2941 18.0669 13.515L18.7299 13.974C19.9689 14.834 21.2999 15.811 22.3179 17.114C22.4794 17.3218 22.5821 17.5691 22.6153 17.8302C22.6486 18.0912 22.6111 18.3564 22.5069 18.598C21.6699 20.551 19.5519 22.214 17.3489 22.133L17.0489 22.116L16.8159 22.096L16.5579 22.066L16.2769 22.028L15.9719 21.978C15.9185 21.9684 15.8652 21.9584 15.8119 21.948L15.4759 21.876C15.4172 21.8631 15.3585 21.8498 15.2999 21.836L14.9339 21.742L14.5489 21.632L14.1469 21.502C12.3009 20.876 9.95792 19.646 7.55392 17.242C5.15092 14.839 3.92092 12.496 3.29492 10.65L3.16492 10.248L3.05492 9.863L2.96092 9.497L2.88292 9.151C2.86039 9.04264 2.83939 8.93396 2.81992 8.825L2.76992 8.52L2.72992 8.239L2.70092 7.981L2.68092 7.748L2.66492 7.448C2.58392 5.252 4.26492 3.119 6.20892 2.286C6.4429 2.18497 6.69912 2.1465 6.95245 2.17438C7.20578 2.20225 7.44751 2.29551 7.65392 2.445ZM15.7889 6.04L15.9049 6.053C16.6328 6.1814 17.3014 6.53694 17.8148 7.06868C18.3282 7.60042 18.6601 8.28104 18.7629 9.013C18.7996 9.26618 18.7378 9.52378 18.5903 9.73281C18.4428 9.94183 18.2208 10.0864 17.97 10.1367C17.7192 10.1871 17.4586 10.1394 17.2419 10.0034C17.0252 9.86753 16.8688 9.65372 16.8049 9.406L16.7819 9.291C16.7417 9.0041 16.6192 8.73499 16.4294 8.51619C16.2395 8.29738 15.9903 8.13824 15.7119 8.058L15.5569 8.023C15.3058 7.9785 15.0812 7.83974 14.929 7.63511C14.7768 7.43048 14.7086 7.17544 14.7382 6.92215C14.7679 6.66886 14.8931 6.43646 15.0884 6.27248C15.2838 6.10851 15.5343 6.02534 15.7889 6.04ZM15.7969 3C17.3882 3 18.9143 3.63214 20.0396 4.75736C21.1648 5.88258 21.7969 7.4087 21.7969 9C21.7966 9.25488 21.699 9.50003 21.5241 9.68537C21.3491 9.87071 21.11 9.98224 20.8555 9.99717C20.6011 10.0121 20.3505 9.92933 20.1551 9.76574C19.9596 9.60215 19.834 9.3701 19.8039 9.117L19.7969 9C19.7973 7.98442 19.4112 7.00676 18.7169 6.26553C18.0227 5.52429 17.0724 5.07505 16.0589 5.009L15.7969 5C15.5317 5 15.2774 4.89464 15.0898 4.70711C14.9023 4.51957 14.7969 4.26522 14.7969 4C14.7969 3.73479 14.9023 3.48043 15.0898 3.2929C15.2774 3.10536 15.5317 3 15.7969 3Z" fill="white"/>
</g>
<defs>
<clipPath id="clip0_1_65">
<rect width="24" height="24" fill="white" transform="translate(0.796875)"/>
</clipPath>
</defs>
</svg>
