<svg width="19" height="18" viewBox="0 0 19 18" fill="none" xmlns="http://www.w3.org/2000/svg">
<path d="M9.14062 8.625C8.64334 8.625 8.16643 8.42746 7.8148 8.07583C7.46317 7.72419 7.26562 7.24728 7.26562 6.75C7.26562 6.25272 7.46317 5.77581 7.8148 5.42417C8.16643 5.07254 8.64334 4.875 9.14062 4.875C9.63791 4.875 10.1148 5.07254 10.4665 5.42417C10.8181 5.77581 11.0156 6.25272 11.0156 6.75C11.0156 6.99623 10.9671 7.24005 10.8729 7.46753C10.7787 7.69502 10.6406 7.90172 10.4665 8.07583C10.2923 8.24994 10.0856 8.38805 9.85816 8.48227C9.63067 8.5765 9.38685 8.625 9.14062 8.625ZM9.14062 1.5C7.74824 1.5 6.41288 2.05312 5.42831 3.03769C4.44375 4.02226 3.89063 5.35761 3.89062 6.75C3.89063 10.6875 9.14062 16.5 9.14062 16.5C9.14062 16.5 14.3906 10.6875 14.3906 6.75C14.3906 5.35761 13.8375 4.02226 12.8529 3.03769C11.8684 2.05312 10.533 1.5 9.14062 1.5Z" fill="white"/>
</svg>
