<svg width="25" height="19" viewBox="0 0 25 19" fill="none" xmlns="http://www.w3.org/2000/svg">
<path d="M0.199219 5.66504V15.545C0.199219 16.4612 0.560442 17.3399 1.20342 17.9878C1.84641 18.6356 2.71848 18.9996 3.62779 18.9996H20.7706C21.68 18.9996 22.552 18.6356 23.195 17.9878C23.838 17.3399 24.1992 16.4612 24.1992 15.545V5.66504L13.9958 11.9903C13.4555 12.3252 12.8336 12.5026 12.1992 12.5026C11.5649 12.5026 10.9429 12.3252 10.4026 11.9903L0.199219 5.66504Z" fill="white"/>
<path d="M24.1992 3.63648V3.45455C24.1992 2.53834 23.838 1.65967 23.195 1.01181C22.552 0.36396 21.68 0 20.7706 0H3.62779C2.71848 0 1.84641 0.36396 1.20342 1.01181C0.560442 1.65967 0.199219 2.53834 0.199219 3.45455V3.63648L11.3009 10.5202C11.5711 10.6877 11.882 10.7764 12.1992 10.7764C12.5164 10.7764 12.8274 10.6877 13.0975 10.5202L24.1992 3.63648Z" fill="white"/>
</svg>
